<?xml version="1.0" encoding="iso-8859-1"?>
<!-- Uploaded to: SVG Repo, www.svgrepo.com, Generator: SVG Repo Mixer Tools -->
<svg fill="#000000" height="800px" width="800px" version="1.1" id="Layer_1" xmlns="http://www.w3.org/2000/svg" xmlns:xlink="http://www.w3.org/1999/xlink" 
	 viewBox="0 0 512.002 512.002" xml:space="preserve">
<g>
	<g>
		<g>
			<path d="M392.42,118.067l-17.067-102.4c-0.418-2.509-1.929-4.693-4.113-5.965c-2.193-1.289-4.838-1.527-7.228-0.649
				l-82.415,29.969V8.533c0-4.719-3.814-8.533-8.533-8.533h-34.133c-4.71,0-8.533,3.814-8.533,8.533v30.49L147.983,9.054
				c-2.398-0.887-5.035-0.648-7.219,0.649c-2.185,1.271-3.695,3.456-4.113,5.965l-17.067,102.4c-0.538,3.183,0.785,6.4,3.396,8.303
				l61.67,44.851c-3.61,8.235-6.963,16.572-9.967,25.045h47.181c4.719,0,8.533,3.814,8.533,8.533s-3.814,8.533-8.533,8.533h-52.787
				c-1.698,5.649-3.217,11.341-4.642,17.067h40.363c4.719,0,8.533,3.814,8.533,8.533s-3.814,8.533-8.533,8.533h-44.151
				c-4.608,23.202-7.049,46.865-7.049,70.647v61.722l14.532,5.803c56.576,20.582,119.168,20.574,175.991-0.085l14.276-5.999v-61.44
				c0-50.654-10.752-100.804-30.993-146.927l61.619-44.817C391.635,124.467,392.949,121.25,392.42,118.067z M230.398,94.02
				c-1.314,1.698-2.534,3.465-3.814,5.188c-1.63,2.176-3.251,4.352-4.83,6.562c-1.664,2.338-3.294,4.71-4.907,7.083
				c-1.442,2.142-2.867,4.292-4.275,6.46c-1.681,2.603-3.345,5.214-4.966,7.851c-1.058,1.741-2.082,3.507-3.123,5.265
				c-4.437,7.526-8.695,15.147-12.578,22.963l-54.622-39.723l14.515-87.074l78.601,28.578V94.02z M264.531,51.2v45.747v0.06v73.66
				c0,4.71-3.823,8.533-8.533,8.533c-4.702,0-8.533-3.823-8.533-8.533v-73.66v-0.051V51.2V17.067h17.067V51.2z M320.1,155.392
				c-1.425-2.876-2.995-5.675-4.497-8.516c-0.879-1.664-1.732-3.337-2.637-4.983c-1.519-2.765-3.115-5.487-4.71-8.218
				c-1.263-2.159-2.526-4.318-3.831-6.46c-1.536-2.5-3.106-4.975-4.693-7.45c-1.476-2.287-2.987-4.548-4.514-6.81
				c-1.604-2.364-3.208-4.719-4.864-7.04c-1.562-2.202-3.183-4.361-4.804-6.528c-1.323-1.784-2.586-3.61-3.951-5.367V57.173
				l78.609-28.578l14.507,87.074L320.1,155.392z"/>
			<path d="M255.885,418.092c-31.821,0-63.599-5.513-93.841-16.512l-8.439-3.371v11.392c0,56.465,45.935,102.4,102.4,102.4
				c56.457,0,102.4-45.935,102.4-102.4v-11.554l-8.064,3.388C319.808,412.546,287.816,418.092,255.885,418.092z"/>
		</g>
	</g>
</g>
<style>
    path { fill: #000; }
    @media (prefers-color-scheme: dark) {
        path { fill: #FFF; }
    }
</style>
</svg>